<svg width="16" height="16" viewBox="0 0 16 16" fill="none" xmlns="http://www.w3.org/2000/svg">
<g clip-path="url(#clip0_360_684)">
<path d="M15.04 8.16699C15.04 7.64699 14.9933 7.14699 14.9067 6.66699H8V9.50699H11.9467C11.7733 10.4203 11.2533 11.1937 10.4733 11.7137V13.5603H12.8533C14.24 12.2803 15.04 10.4003 15.04 8.16699Z" fill="#4285F4"/>
<path d="M7.99979 15.3337C9.97979 15.3337 11.6398 14.6804 12.8531 13.5604L10.4731 11.7137C9.81979 12.1537 8.98646 12.4204 7.99979 12.4204C6.09313 12.4204 4.47312 11.1337 3.89313 9.40039H1.45312V11.2937C2.65979 13.6871 5.13313 15.3337 7.99979 15.3337Z" fill="#34A853"/>
<path d="M3.89366 9.3937C3.74699 8.9537 3.66033 8.48703 3.66033 8.00036C3.66033 7.5137 3.74699 7.04703 3.89366 6.60703V4.70703H1.45366C0.953659 5.70036 0.666992 6.8137 0.666992 8.00036C0.666992 9.18703 0.953659 10.3004 1.45366 11.2937L3.35366 9.8137L3.89366 9.3937Z" fill="#FBBC05"/>
<path d="M7.99979 3.58699C9.07979 3.58699 10.0398 3.96033 10.8065 4.68033L12.9065 2.58033C11.6331 1.39366 9.97979 0.666992 7.99979 0.666992C5.13313 0.666992 2.65979 2.31366 1.45312 4.70699L3.89313 6.60033C4.47312 4.86699 6.09313 3.58699 7.99979 3.58699Z" fill="#EA4335"/>
</g>
<defs>
<clipPath id="clip0_360_684">
<rect width="16" height="16" fill="white"/>
</clipPath>
</defs>
</svg>
