<svg width="10" height="11" viewBox="0 0 10 11" fill="none" xmlns="http://www.w3.org/2000/svg">
<path d="M9.74854 0.300293C7.36084 3.7085 4.90723 6.86279 2.3877 9.76318C2.19727 9.98291 2.03125 10.0928 1.88965 10.0928C1.72852 10.0928 1.43799 9.66797 1.01807 8.81836C0.339355 7.44629 0 6.62598 0 6.35742C0 6.25977 0.065918 6.14502 0.197754 6.01318C0.480957 5.71533 0.681152 5.56641 0.79834 5.56641C0.905762 5.56641 1.02051 5.7373 1.14258 6.0791C1.46484 6.94824 1.8042 7.72217 2.16064 8.40088C4.63135 5.90088 7.0752 3.10059 9.49219 0L9.74854 0.300293Z" fill="#059669"/>
</svg>
