<svg width="7" height="8" viewBox="0 0 7 8" fill="none" xmlns="http://www.w3.org/2000/svg">
<path d="M3.47266 7.98438C3.3724 7.59245 3.21859 7.18913 3.01123 6.77441C2.80387 6.3597 2.29915 5.61458 1.49707 4.53906L0.881836 3.69824C0.540039 3.24251 0.307617 2.86768 0.18457 2.57373C0.0615234 2.27979 0 1.98242 0 1.68164C0 1.19401 0.158366 0.794108 0.475098 0.481934C0.791829 0.169759 1.18034 0.0136719 1.64062 0.0136719C2.03711 0.0136719 2.39827 0.143555 2.72412 0.40332C3.04997 0.663086 3.29948 1.06641 3.47266 1.61328C3.6276 1.07096 3.86686 0.666504 4.19043 0.399902C4.514 0.133301 4.8763 0 5.27734 0C5.7194 0 6.10335 0.154948 6.4292 0.464844C6.75505 0.77474 6.91797 1.15299 6.91797 1.59961C6.91797 1.99154 6.81771 2.40397 6.61719 2.83691C6.41667 3.26986 6.06348 3.7985 5.55762 4.42285C4.9196 5.23861 4.45361 5.88916 4.15967 6.37451C3.86572 6.85986 3.63672 7.39648 3.47266 7.98438Z" fill="#F43F5E"/>
</svg>
